<mxfile modified="2020-09-25T08:53:04.640Z" host="app.diagrams.net" agent="5.0 (Windows NT 10.0; Win64; x64) AppleWebKit/537.36 (KHTML, like Gecko) Chrome/85.0.4183.121 Safari/537.36" etag="dUsNawYIIQOj9I5bmi45" version="13.7.5" type="github">
  <diagram id="d1ab7348-05c3-a1e3-ca4d-12c340fd6b49" name="Page-1">
    <mxGraphModel dx="2733" dy="874" grid="1" gridSize="10" guides="1" tooltips="1" connect="1" arrows="1" fold="1" page="1" pageScale="1" pageWidth="1169" pageHeight="827" background="#ffffff" math="0" shadow="0">
      <root>
        <mxCell id="0" />
        <mxCell id="1" parent="0" />
        <mxCell id="2KuFmGQ5bhaeHU06HSTh-211" style="edgeStyle=orthogonalEdgeStyle;rounded=0;orthogonalLoop=1;jettySize=auto;html=1;fontSize=20;entryX=0.5;entryY=0;entryDx=0;entryDy=0;align=center;" edge="1" parent="1" source="2KuFmGQ5bhaeHU06HSTh-163" target="2KuFmGQ5bhaeHU06HSTh-164">
          <mxGeometry relative="1" as="geometry">
            <mxPoint x="130" y="329" as="sourcePoint" />
          </mxGeometry>
        </mxCell>
        <mxCell id="2KuFmGQ5bhaeHU06HSTh-213" value="Lambda reads object &lt;br style=&quot;font-size: 20px;&quot;&gt;contents and passes it as &lt;br style=&quot;font-size: 20px;&quot;&gt;input to Step Function" style="edgeLabel;html=1;align=center;verticalAlign=middle;resizable=0;points=[];fontSize=20;" vertex="1" connectable="0" parent="2KuFmGQ5bhaeHU06HSTh-211">
          <mxGeometry x="-0.3359" y="-5" relative="1" as="geometry">
            <mxPoint x="-3.27" y="22" as="offset" />
          </mxGeometry>
        </mxCell>
        <mxCell id="2KuFmGQ5bhaeHU06HSTh-163" value="" style="outlineConnect=0;fontColor=#232F3E;gradientColor=none;fillColor=#D05C17;strokeColor=none;dashed=0;verticalLabelPosition=bottom;verticalAlign=top;align=center;html=1;fontSize=20;fontStyle=0;aspect=fixed;pointerEvents=1;shape=mxgraph.aws4.lambda_function;" vertex="1" parent="1">
          <mxGeometry x="400" y="100" width="78" height="78" as="geometry" />
        </mxCell>
        <mxCell id="2KuFmGQ5bhaeHU06HSTh-209" style="edgeStyle=none;rounded=0;orthogonalLoop=1;jettySize=auto;html=1;fontSize=20;align=center;" edge="1" parent="1" source="2KuFmGQ5bhaeHU06HSTh-203" target="2KuFmGQ5bhaeHU06HSTh-163">
          <mxGeometry relative="1" as="geometry" />
        </mxCell>
        <mxCell id="2KuFmGQ5bhaeHU06HSTh-210" value="S3 upload &lt;br style=&quot;font-size: 20px;&quot;&gt;triggers Lambda" style="edgeLabel;html=1;align=center;verticalAlign=middle;resizable=0;points=[];fontSize=20;" vertex="1" connectable="0" parent="2KuFmGQ5bhaeHU06HSTh-209">
          <mxGeometry x="0.1712" y="-6" relative="1" as="geometry">
            <mxPoint x="-35" y="-5" as="offset" />
          </mxGeometry>
        </mxCell>
        <mxCell id="2KuFmGQ5bhaeHU06HSTh-203" value="S3 Bucket" style="outlineConnect=0;fontColor=#232F3E;gradientColor=none;fillColor=#277116;strokeColor=none;dashed=0;verticalLabelPosition=bottom;verticalAlign=top;align=center;html=1;fontSize=20;fontStyle=0;aspect=fixed;pointerEvents=1;shape=mxgraph.aws4.bucket;rounded=1;" vertex="1" parent="1">
          <mxGeometry x="70" y="100" width="75" height="78" as="geometry" />
        </mxCell>
        <mxCell id="2KuFmGQ5bhaeHU06HSTh-205" value="" style="group;align=center;fontSize=20;" vertex="1" connectable="0" parent="1">
          <mxGeometry x="-286" y="100" width="180" height="563" as="geometry" />
        </mxCell>
        <mxCell id="2KuFmGQ5bhaeHU06HSTh-202" value="&lt;font style=&quot;font-size: 20px&quot;&gt;Products.json&lt;/font&gt;" style="outlineConnect=0;fontColor=#232F3E;gradientColor=none;fillColor=#277116;strokeColor=none;dashed=0;verticalLabelPosition=bottom;verticalAlign=top;align=center;html=1;fontSize=20;fontStyle=0;aspect=fixed;pointerEvents=1;shape=mxgraph.aws4.object;rounded=1;" vertex="1" parent="2KuFmGQ5bhaeHU06HSTh-205">
          <mxGeometry x="36" width="78" height="78" as="geometry" />
        </mxCell>
        <mxCell id="2KuFmGQ5bhaeHU06HSTh-204" value="&lt;div style=&quot;font-family: &amp;#34;consolas&amp;#34; , &amp;#34;courier new&amp;#34; , monospace ; font-size: 20px ; line-height: 19px&quot;&gt;&lt;div style=&quot;font-size: 20px&quot;&gt;&lt;span style=&quot;background-color: rgb(255 , 255 , 255) ; font-size: 20px&quot;&gt;{&lt;/span&gt;&lt;/div&gt;&lt;div style=&quot;font-size: 20px&quot;&gt;&lt;span style=&quot;background-color: rgb(255 , 255 , 255) ; font-size: 20px&quot;&gt;&amp;nbsp;&amp;nbsp;&quot;Products&quot;:&amp;nbsp;[&lt;/span&gt;&lt;/div&gt;&lt;div style=&quot;font-size: 20px&quot;&gt;&lt;span style=&quot;background-color: rgb(255 , 255 , 255) ; font-size: 20px&quot;&gt;&amp;nbsp;&amp;nbsp;&amp;nbsp;&amp;nbsp;{&lt;/span&gt;&lt;/div&gt;&lt;div style=&quot;font-size: 20px&quot;&gt;&lt;span style=&quot;background-color: rgb(255 , 255 , 255) ; font-size: 20px&quot;&gt;&amp;nbsp;&amp;nbsp;&amp;nbsp;&amp;nbsp;&amp;nbsp;&amp;nbsp;&quot;Product&quot;:&amp;nbsp;1&lt;/span&gt;&lt;/div&gt;&lt;div style=&quot;font-size: 20px&quot;&gt;&lt;span style=&quot;background-color: rgb(255 , 255 , 255) ; font-size: 20px&quot;&gt;&amp;nbsp;&amp;nbsp;&amp;nbsp;&amp;nbsp;},&lt;/span&gt;&lt;/div&gt;&lt;div style=&quot;font-size: 20px&quot;&gt;&lt;span style=&quot;background-color: rgb(255 , 255 , 255) ; font-size: 20px&quot;&gt;&amp;nbsp;&amp;nbsp;&amp;nbsp;&amp;nbsp;{&lt;/span&gt;&lt;/div&gt;&lt;div style=&quot;font-size: 20px&quot;&gt;&lt;span style=&quot;background-color: rgb(255 , 255 , 255) ; font-size: 20px&quot;&gt;&amp;nbsp;&amp;nbsp;&amp;nbsp;&amp;nbsp;&amp;nbsp;&amp;nbsp;&quot;Product&quot;:&amp;nbsp;2&lt;/span&gt;&lt;/div&gt;&lt;div style=&quot;font-size: 20px&quot;&gt;&lt;span style=&quot;background-color: rgb(255 , 255 , 255) ; font-size: 20px&quot;&gt;&amp;nbsp;&amp;nbsp;&amp;nbsp;&amp;nbsp;},&lt;/span&gt;&lt;/div&gt;&lt;div style=&quot;font-size: 20px&quot;&gt;&lt;span style=&quot;background-color: rgb(255 , 255 , 255) ; font-size: 20px&quot;&gt;&amp;nbsp;&amp;nbsp;&amp;nbsp;&amp;nbsp;{&lt;/span&gt;&lt;/div&gt;&lt;div style=&quot;font-size: 20px&quot;&gt;&lt;span style=&quot;background-color: rgb(255 , 255 , 255) ; font-size: 20px&quot;&gt;&amp;nbsp;&amp;nbsp;&amp;nbsp;&amp;nbsp;&amp;nbsp;&amp;nbsp;&quot;Product&quot;:&amp;nbsp;3&lt;/span&gt;&lt;/div&gt;&lt;div style=&quot;font-size: 20px&quot;&gt;&lt;span style=&quot;background-color: rgb(255 , 255 , 255) ; font-size: 20px&quot;&gt;&amp;nbsp;&amp;nbsp;&amp;nbsp;&amp;nbsp;},&lt;/span&gt;&lt;/div&gt;&lt;div style=&quot;font-size: 20px&quot;&gt;&lt;span style=&quot;background-color: rgb(255 , 255 , 255) ; font-size: 20px&quot;&gt;&amp;nbsp;&amp;nbsp;&amp;nbsp;&amp;nbsp;{&lt;/span&gt;&lt;/div&gt;&lt;div style=&quot;font-size: 20px&quot;&gt;&lt;span style=&quot;background-color: rgb(255 , 255 , 255) ; font-size: 20px&quot;&gt;&amp;nbsp;&amp;nbsp;&amp;nbsp;&amp;nbsp;&amp;nbsp;&amp;nbsp;&quot;Product&quot;:&amp;nbsp;4&lt;/span&gt;&lt;/div&gt;&lt;div style=&quot;font-size: 20px&quot;&gt;&lt;span style=&quot;background-color: rgb(255 , 255 , 255) ; font-size: 20px&quot;&gt;&amp;nbsp;&amp;nbsp;&amp;nbsp;&amp;nbsp;},&lt;/span&gt;&lt;/div&gt;&lt;div style=&quot;font-size: 20px&quot;&gt;&lt;span style=&quot;background-color: rgb(255 , 255 , 255) ; font-size: 20px&quot;&gt;&amp;nbsp;&amp;nbsp;&amp;nbsp;&amp;nbsp;{&lt;/span&gt;&lt;/div&gt;&lt;div style=&quot;font-size: 20px&quot;&gt;&lt;span style=&quot;background-color: rgb(255 , 255 , 255) ; font-size: 20px&quot;&gt;&amp;nbsp;&amp;nbsp;&amp;nbsp;&amp;nbsp;&amp;nbsp;&amp;nbsp;&quot;Product&quot;:&amp;nbsp;5&lt;/span&gt;&lt;/div&gt;&lt;div style=&quot;font-size: 20px&quot;&gt;&lt;span style=&quot;background-color: rgb(255 , 255 , 255) ; font-size: 20px&quot;&gt;&amp;nbsp;&amp;nbsp;&amp;nbsp;&amp;nbsp;},&lt;/span&gt;&lt;/div&gt;&lt;div style=&quot;font-size: 20px&quot;&gt;&lt;span style=&quot;background-color: rgb(255 , 255 , 255) ; font-size: 20px&quot;&gt;&amp;nbsp;&amp;nbsp;&amp;nbsp;&amp;nbsp;{&lt;/span&gt;&lt;/div&gt;&lt;div style=&quot;font-size: 20px&quot;&gt;&lt;span style=&quot;background-color: rgb(255 , 255 , 255) ; font-size: 20px&quot;&gt;&amp;nbsp;&amp;nbsp;&amp;nbsp;&amp;nbsp;&amp;nbsp;&amp;nbsp;&quot;Product&quot;:&amp;nbsp;6&lt;/span&gt;&lt;/div&gt;&lt;div style=&quot;font-size: 20px&quot;&gt;&lt;span style=&quot;background-color: rgb(255 , 255 , 255) ; font-size: 20px&quot;&gt;&amp;nbsp;&amp;nbsp;&amp;nbsp;&amp;nbsp;}&lt;/span&gt;&lt;/div&gt;&lt;div style=&quot;font-size: 20px&quot;&gt;&lt;span style=&quot;background-color: rgb(255 , 255 , 255) ; font-size: 20px&quot;&gt;&amp;nbsp;&amp;nbsp;]&lt;/span&gt;&lt;/div&gt;&lt;div style=&quot;font-size: 20px&quot;&gt;&lt;span style=&quot;background-color: rgb(255 , 255 , 255) ; font-size: 20px&quot;&gt;}&lt;/span&gt;&lt;/div&gt;&lt;br style=&quot;font-size: 20px&quot;&gt;&lt;/div&gt;" style="text;html=1;align=left;verticalAlign=middle;resizable=0;points=[];autosize=1;fontSize=20;fillColor=#ffffff;" vertex="1" parent="2KuFmGQ5bhaeHU06HSTh-205">
          <mxGeometry x="-30" y="133" width="210" height="430" as="geometry" />
        </mxCell>
        <mxCell id="2KuFmGQ5bhaeHU06HSTh-207" style="edgeStyle=none;rounded=0;orthogonalLoop=1;jettySize=auto;html=1;fontSize=20;align=center;" edge="1" parent="1" source="2KuFmGQ5bhaeHU06HSTh-202" target="2KuFmGQ5bhaeHU06HSTh-203">
          <mxGeometry relative="1" as="geometry" />
        </mxCell>
        <mxCell id="2KuFmGQ5bhaeHU06HSTh-208" value="JSON object &lt;br style=&quot;font-size: 20px;&quot;&gt;uploaded to S3" style="edgeLabel;html=1;align=center;verticalAlign=middle;resizable=0;points=[];fontSize=20;" vertex="1" connectable="0" parent="2KuFmGQ5bhaeHU06HSTh-207">
          <mxGeometry x="-0.3292" y="-2" relative="1" as="geometry">
            <mxPoint x="30" as="offset" />
          </mxGeometry>
        </mxCell>
        <mxCell id="2KuFmGQ5bhaeHU06HSTh-212" value="" style="group;align=center;fontSize=20;" vertex="1" connectable="0" parent="1">
          <mxGeometry x="160" y="420" width="595" height="620" as="geometry" />
        </mxCell>
        <mxCell id="2KuFmGQ5bhaeHU06HSTh-164" value="&lt;font style=&quot;font-size: 20px&quot;&gt;AWS Step Functions workflow&lt;/font&gt;" style="points=[[0,0],[0.25,0],[0.5,0],[0.75,0],[1,0],[1,0.25],[1,0.5],[1,0.75],[1,1],[0.75,1],[0.5,1],[0.25,1],[0,1],[0,0.75],[0,0.5],[0,0.25]];outlineConnect=0;gradientColor=none;html=1;whiteSpace=wrap;fontSize=20;fontStyle=0;shape=mxgraph.aws4.group;grIcon=mxgraph.aws4.group_aws_step_functions_workflow;strokeColor=#CD2264;fillColor=none;verticalAlign=top;align=center;spacingLeft=30;fontColor=#CD2264;dashed=0;" vertex="1" parent="2KuFmGQ5bhaeHU06HSTh-212">
          <mxGeometry width="560" height="620" as="geometry" />
        </mxCell>
        <mxCell id="2KuFmGQ5bhaeHU06HSTh-172" value="" style="group;fontSize=20;align=center;" vertex="1" connectable="0" parent="2KuFmGQ5bhaeHU06HSTh-212">
          <mxGeometry x="50" y="50" width="545" height="516" as="geometry" />
        </mxCell>
        <mxCell id="2KuFmGQ5bhaeHU06HSTh-169" value="" style="rounded=1;whiteSpace=wrap;html=1;dashed=1;fontSize=20;align=center;" vertex="1" parent="2KuFmGQ5bhaeHU06HSTh-172">
          <mxGeometry width="400" height="370" as="geometry" />
        </mxCell>
        <mxCell id="2KuFmGQ5bhaeHU06HSTh-170" value="" style="rounded=1;whiteSpace=wrap;html=1;dashed=1;fontSize=20;align=center;" vertex="1" parent="2KuFmGQ5bhaeHU06HSTh-172">
          <mxGeometry x="11.47" y="17.36" width="418.53" height="372.64" as="geometry" />
        </mxCell>
        <mxCell id="2KuFmGQ5bhaeHU06HSTh-171" value="" style="rounded=1;whiteSpace=wrap;html=1;dashed=1;fontSize=20;align=center;" vertex="1" parent="2KuFmGQ5bhaeHU06HSTh-172">
          <mxGeometry x="22.95" y="34.72" width="427.05" height="375.28" as="geometry" />
        </mxCell>
        <mxCell id="2KuFmGQ5bhaeHU06HSTh-196" value="&lt;font style=&quot;font-size: 20px&quot;&gt;Map Task&lt;/font&gt;" style="text;html=1;align=center;verticalAlign=middle;resizable=0;points=[];autosize=1;fontSize=20;" vertex="1" parent="2KuFmGQ5bhaeHU06HSTh-172">
          <mxGeometry x="186.4721052631579" y="57.48807339449541" width="100" height="30" as="geometry" />
        </mxCell>
        <mxCell id="2KuFmGQ5bhaeHU06HSTh-199" value="" style="group;fontSize=20;align=center;" vertex="1" connectable="0" parent="2KuFmGQ5bhaeHU06HSTh-172">
          <mxGeometry x="60" y="100" width="346.03" height="284" as="geometry" />
        </mxCell>
        <mxCell id="2KuFmGQ5bhaeHU06HSTh-184" value="" style="rounded=1;whiteSpace=wrap;html=1;dashed=1;fontSize=20;align=center;" vertex="1" parent="2KuFmGQ5bhaeHU06HSTh-199">
          <mxGeometry width="346.03" height="284" as="geometry" />
        </mxCell>
        <mxCell id="2KuFmGQ5bhaeHU06HSTh-186" value="Strategy 1" style="outlineConnect=0;fontColor=#232F3E;gradientColor=none;fillColor=#D05C17;strokeColor=none;dashed=0;verticalLabelPosition=top;verticalAlign=bottom;align=center;html=1;fontSize=20;fontStyle=0;aspect=fixed;pointerEvents=1;shape=mxgraph.aws4.lambda_function;labelPosition=center;" vertex="1" parent="2KuFmGQ5bhaeHU06HSTh-199">
          <mxGeometry x="26.25045833333333" y="69.99516129032259" width="58.036242744019326" height="58.036242744019326" as="geometry" />
        </mxCell>
        <mxCell id="2KuFmGQ5bhaeHU06HSTh-187" value="Strategy 2" style="outlineConnect=0;fontColor=#232F3E;gradientColor=none;fillColor=#D05C17;strokeColor=none;dashed=0;verticalLabelPosition=top;verticalAlign=bottom;align=center;html=1;fontSize=20;fontStyle=0;aspect=fixed;pointerEvents=1;shape=mxgraph.aws4.lambda_function;labelPosition=center;" vertex="1" parent="2KuFmGQ5bhaeHU06HSTh-199">
          <mxGeometry x="143.9972222222222" y="69.99516129032259" width="58.036242744019326" height="58.036242744019326" as="geometry" />
        </mxCell>
        <mxCell id="2KuFmGQ5bhaeHU06HSTh-188" value="Strategy n" style="outlineConnect=0;fontColor=#232F3E;gradientColor=none;fillColor=#D05C17;strokeColor=none;dashed=0;verticalLabelPosition=top;verticalAlign=bottom;align=center;html=1;fontSize=20;fontStyle=0;aspect=fixed;pointerEvents=1;shape=mxgraph.aws4.lambda_function;labelPosition=center;" vertex="1" parent="2KuFmGQ5bhaeHU06HSTh-199">
          <mxGeometry x="261.7386111111111" y="69.99516129032259" width="58.036242744019326" height="58.036242744019326" as="geometry" />
        </mxCell>
        <mxCell id="2KuFmGQ5bhaeHU06HSTh-189" value="Aggregation" style="outlineConnect=0;fontColor=#232F3E;gradientColor=none;fillColor=#D05C17;strokeColor=none;dashed=0;verticalLabelPosition=bottom;verticalAlign=top;align=center;html=1;fontSize=20;fontStyle=0;aspect=fixed;pointerEvents=1;shape=mxgraph.aws4.lambda_function;" vertex="1" parent="2KuFmGQ5bhaeHU06HSTh-199">
          <mxGeometry x="143.9972222222222" y="164.9032258064516" width="58.036242744019326" height="58.036242744019326" as="geometry" />
        </mxCell>
        <mxCell id="2KuFmGQ5bhaeHU06HSTh-191" style="edgeStyle=orthogonalEdgeStyle;rounded=0;orthogonalLoop=1;jettySize=auto;html=1;curved=1;fontSize=20;align=center;" edge="1" parent="2KuFmGQ5bhaeHU06HSTh-199" source="2KuFmGQ5bhaeHU06HSTh-186" target="2KuFmGQ5bhaeHU06HSTh-189">
          <mxGeometry relative="1" as="geometry">
            <Array as="points">
              <mxPoint x="67.2836111111111" y="200.63225806451612" />
            </Array>
          </mxGeometry>
        </mxCell>
        <mxCell id="2KuFmGQ5bhaeHU06HSTh-192" style="edgeStyle=orthogonalEdgeStyle;curved=1;rounded=0;orthogonalLoop=1;jettySize=auto;html=1;fontSize=20;align=center;" edge="1" parent="2KuFmGQ5bhaeHU06HSTh-199" source="2KuFmGQ5bhaeHU06HSTh-187" target="2KuFmGQ5bhaeHU06HSTh-189">
          <mxGeometry relative="1" as="geometry">
            <mxPoint x="172.05380555555553" y="137.41935483870967" as="sourcePoint" />
          </mxGeometry>
        </mxCell>
        <mxCell id="2KuFmGQ5bhaeHU06HSTh-194" style="edgeStyle=orthogonalEdgeStyle;curved=1;rounded=0;orthogonalLoop=1;jettySize=auto;html=1;fontSize=20;align=center;" edge="1" parent="2KuFmGQ5bhaeHU06HSTh-199" source="2KuFmGQ5bhaeHU06HSTh-188" target="2KuFmGQ5bhaeHU06HSTh-189">
          <mxGeometry relative="1" as="geometry">
            <Array as="points">
              <mxPoint x="277.7851944444444" y="200.63225806451612" />
            </Array>
          </mxGeometry>
        </mxCell>
        <mxCell id="2KuFmGQ5bhaeHU06HSTh-195" value="&lt;font style=&quot;font-size: 20px;&quot;&gt;Parallel Task&lt;/font&gt;" style="text;html=1;align=center;verticalAlign=middle;resizable=0;points=[];autosize=1;fontSize=20;" vertex="1" parent="2KuFmGQ5bhaeHU06HSTh-199">
          <mxGeometry x="108.80005555555553" y="4.161290322580644" width="130" height="30" as="geometry" />
        </mxCell>
        <mxCell id="2KuFmGQ5bhaeHU06HSTh-200" value="Aggregation" style="outlineConnect=0;fontColor=#232F3E;gradientColor=none;fillColor=#D05C17;strokeColor=none;dashed=0;verticalLabelPosition=bottom;verticalAlign=top;align=center;html=1;fontSize=20;fontStyle=0;aspect=fixed;pointerEvents=1;shape=mxgraph.aws4.lambda_function;" vertex="1" parent="2KuFmGQ5bhaeHU06HSTh-212">
          <mxGeometry x="257.4572222222223" y="500.0032258064516" width="58.036242744019326" height="58.036242744019326" as="geometry" />
        </mxCell>
        <mxCell id="2KuFmGQ5bhaeHU06HSTh-201" style="rounded=0;orthogonalLoop=1;jettySize=auto;html=1;fontSize=20;align=center;" edge="1" parent="2KuFmGQ5bhaeHU06HSTh-212" source="2KuFmGQ5bhaeHU06HSTh-171" target="2KuFmGQ5bhaeHU06HSTh-200">
          <mxGeometry relative="1" as="geometry" />
        </mxCell>
      </root>
    </mxGraphModel>
  </diagram>
</mxfile>
